<mxfile host="app.diagrams.net" modified="2023-05-06T08:03:02.483Z" agent="Mozilla/5.0 (Windows NT 10.0; Win64; x64) AppleWebKit/537.36 (KHTML, like Gecko) Chrome/113.0.0.0 Safari/537.36" version="21.2.3" etag="Ax0QXUgrIbXpFvECc02n" type="github">
  <diagram name="Page-1" id="MK00Cdseju4CPGHHZwMQ">
    <mxGraphModel>
      <root>
        <mxCell id="0" />
        <mxCell id="1" parent="0" />
      </root>
    </mxGraphModel>
  </diagram>
</mxfile>
